# xmcd
#
# Track frame offsets:
#	150
#	11040
#	21965
#	42407
#	51252
#	75520
#	89357
#	109905
#	124275
#	144147
#	157992
#	173900
#	185165
#	200727
#	217915
#	231125
#
# Disc length: 3268
#
# Revision: 1
# Processed by: cddbd v1.5.1PL0 Copyright (c) Steve Scherf et al.
# Submitted via: AudioConverter v4.01 Copyright (c) Dennis Rebentrost
# Normalized: r0:TDELIM( - )
#
DISCID=db0cc210
DTITLE=Various Artist - Cool Blue Outlaws
DYEAR=2002
DGENRE=Country
TTITLE0=Bandit - Lonesome Standard Time
TTITLE1=Ruby Ridge - Peter Brown
TTITLE2=Hollis Brown - Dudley Connell and Don Rigsby
TTITLE3=Jailhouse Blues - Ronnie Bowman
TTITLE4=Captain, Oh Captain - Bad Livers
TTITLE5=River Bottom - The Country Gentlemen
TTITLE6=Doin' My Time - Aubrey Haynie
TTITLE7=Willow Garden - Lonesome River Band
TTITLE8=The Ballad of Spider John - Sam Bush
TTITLE9=Open Pit Mine - The Nashville Bluegrass Band
TTITLE10=Columbus Stockade Blues - Doc and Richard Watson
TTITLE11=Poor Ellen Smith - Jim Mills
TTITLE12=Philadelphia Lawyer - The Seldom Scene
TTITLE13=Girl in the Blue Velvet Band - Jerry Douglas and Peter Rowan
TTITLE14=Blackbirds and Crows - The Nashville Bluegrss Band
TTITLE15=In the Gravel Yard - Doyle Lawson and Quicksilver
EXTD=
EXTT0=
EXTT1=
EXTT2=
EXTT3=
EXTT4=
EXTT5=
EXTT6=
EXTT7=
EXTT8=
EXTT9=
EXTT10=
EXTT11=
EXTT12=
EXTT13=
EXTT14=
EXTT15=
PLAYORDER=
